<svg width="101" height="30" viewBox="0 0 101 30" fill="none" xmlns="http://www.w3.org/2000/svg">
<path d="M22 0C26.4183 0 30 3.58172 30 8V22C30 26.4183 26.4183 30 22 30H8C4.0722 30 0.80675 27.1691 0.129883 23.4365C0.213515 23.6447 0.337384 23.7909 0.501953 23.875C0.836681 24.046 1.32523 24.1318 1.9668 24.1318C2.88722 22.7925 3.72347 21.4101 4.47656 19.9854C5.25759 18.5319 5.96977 17.2491 6.61133 16.1377C7.28072 14.9979 7.89432 14.1287 8.45215 13.5303C9.03788 12.9034 9.58192 12.7326 10.084 13.0176C10.2512 13.0176 10.4187 13.0601 10.5859 13.1455C10.781 13.2025 10.8788 13.3591 10.8789 13.6152C10.8789 13.7577 10.8366 13.9575 10.7529 14.2139C10.6693 14.4418 10.5715 14.6985 10.46 14.9834C10.3484 15.2683 10.2375 15.5394 10.126 15.7959C10.0145 16.0522 9.91666 16.2376 9.83301 16.3516C9.91628 16.3522 9.90243 16.5518 9.79102 16.9502C9.67945 17.3206 9.51215 17.805 9.28906 18.4033C9.09384 18.9732 8.88424 19.5859 8.66113 20.2412C8.43803 20.868 8.27076 21.4383 8.15918 21.9512C8.07551 22.4641 8.07554 22.849 8.15918 23.1055C8.27076 23.3335 8.54979 23.3335 8.99609 23.1055H9.41406C9.63721 23.077 9.77722 23.049 9.83301 23.0205C10.0562 22.536 10.3765 21.9226 10.7949 21.1816C11.2411 20.4409 11.7572 19.6717 12.3428 18.874C12.9563 18.0477 13.5982 17.2353 14.2676 16.4375C14.9649 15.6111 15.6621 14.8693 16.3594 14.2139C17.0846 13.5584 17.7968 13.0318 18.4941 12.6328C19.1913 12.234 19.8464 12.0342 20.46 12.0342C20.4599 12.8605 20.2926 13.6439 19.958 14.3848C19.6512 15.0972 19.2885 15.8245 18.8701 16.5654C18.4796 17.2778 18.1169 18.0332 17.7822 18.8311C17.4755 19.6003 17.3223 20.4409 17.3223 21.3525C17.1828 21.8939 17.1688 22.4072 17.2803 22.8916C17.3918 23.3476 17.5873 23.7614 17.8662 24.1318C18.1451 24.5022 18.4938 24.7869 18.9121 24.9863C19.3584 25.1858 19.847 25.2861 20.377 25.2861C20.8787 25.2861 21.269 25.2571 21.5479 25.2002C21.8546 25.1147 22.2871 24.9439 22.8447 24.6875C23.0958 24.5735 23.5148 24.3594 24.1006 24.0459C24.7142 23.7325 25.356 23.4189 26.0254 23.1055C26.6947 22.7635 27.3084 22.45 27.8662 22.165C28.4516 21.8518 28.8559 21.6239 29.0791 21.4814C29.3859 21.339 29.6096 21.1393 29.749 20.8828C29.9163 20.5979 30 20.2987 30 19.9854C29.219 19.9854 28.4796 20.1136 27.7822 20.3701C27.085 20.6266 26.3877 20.9112 25.6904 21.2246C25.0211 21.538 24.3379 21.8236 23.6406 22.0801C22.9434 22.3365 22.2178 22.4648 21.4648 22.4648C20.9906 22.2654 20.6552 21.9943 20.46 21.6523C20.2926 21.2819 20.2926 20.6829 20.46 19.8564C20.6552 19.0015 21.032 17.8188 21.5898 16.3086C22.1756 14.7982 22.9705 12.789 23.9746 10.2812C23.9746 9.85749 23.847 9.49898 23.5908 9.20605L23.3545 8.96387C23.0708 8.70215 22.7332 8.57129 22.3428 8.57129C21.8408 8.57137 21.1856 8.77114 20.377 9.16992C19.596 9.54035 18.7869 9.98223 17.9502 10.4951C17.1413 11.0081 16.3737 11.5212 15.6484 12.0342C14.9515 12.5184 14.4494 12.8601 14.1426 13.0596C14.1425 12.7748 14.1002 12.4473 14.0166 12.0771C13.933 11.6784 13.8079 11.3077 13.6406 10.9658C13.5012 10.5953 13.2916 10.2954 13.0127 10.0674C12.7617 9.81095 12.4403 9.68262 12.0498 9.68262C11.4642 9.68267 10.8786 9.79746 10.293 10.0254C9.73526 10.2533 9.2192 10.5235 8.74512 10.8369C8.46623 10.2956 8.08931 10.1674 7.61523 10.4521C7.16898 10.7086 6.65307 11.2219 6.06738 11.9912C5.5095 12.7322 4.90914 13.6446 4.26758 14.7275C3.65399 15.8103 3.06856 16.8793 2.51074 17.9336C1.95291 18.9879 1.45018 19.9565 1.00391 20.8398C0.572493 21.6663 0.244388 22.2391 0.0214844 22.5596C0.00870426 22.3747 9.60329e-09 22.1882 0 22V8C0 3.58172 3.58172 2.2549e-07 8 0H22ZM0.0214844 22.5596C0.0420177 22.8567 0.0777859 23.1492 0.129883 23.4365C0.0434711 23.2214 5.67017e-06 22.9403 0 22.5928C0.00744559 22.5823 0.0137904 22.5706 0.0214844 22.5596Z" fill="currentColor"/>
<path d="M53.934 19.59V10.644H53.898L50.19 19.59H48.372L44.682 10.698H44.664V19.59H42V6.468H45.672L49.29 15.198L52.836 6.468H56.598V19.59H53.934Z" fill="currentColor"/>
<path d="M61.808 19.77C60.998 19.77 60.296 19.518 59.72 19.032C59.126 18.528 58.838 17.88 58.838 17.088V17.016C58.838 15.738 59.612 15 60.638 14.64C61.358 14.37 62.024 14.28 62.78 14.28H63.644C64.112 14.28 64.346 14.046 64.346 13.668C64.346 13.038 63.842 12.552 62.942 12.552C62.15 12.552 61.538 13.02 61.34 13.776L59.036 13.254C59.144 12.642 59.396 12.12 59.81 11.688C60.206 11.256 60.692 10.932 61.268 10.734C61.826 10.536 62.42 10.428 63.068 10.428C65.282 10.41 66.92 11.67 66.92 14.046V18.15C66.92 18.69 66.956 19.176 66.992 19.59H64.562C64.526 19.356 64.508 18.996 64.508 18.474H64.472C63.86 19.32 62.978 19.77 61.808 19.77ZM62.564 17.862C63.104 17.862 63.536 17.682 63.86 17.34C64.184 17.016 64.346 16.602 64.346 16.134V15.918H62.78C62.456 15.918 62.168 16.008 61.898 16.188C61.61 16.368 61.466 16.62 61.466 16.944C61.466 17.538 61.952 17.862 62.564 17.862Z" fill="currentColor"/>
<path d="M75.6645 10.644H78.2385V19.14C78.2385 20.742 77.7345 22.038 76.8525 22.83C75.9705 23.64 74.7645 24.072 73.3425 24.072C72.0645 24.072 70.9125 23.676 70.1745 23.064C69.4005 22.452 68.8965 21.678 68.7525 20.85L71.1645 20.148C71.2545 20.598 71.4705 20.994 71.8305 21.318C72.1725 21.642 72.6405 21.786 73.2345 21.786C74.4945 21.786 75.6285 21.084 75.6285 19.428V18.402H75.5925C74.9805 19.194 74.1345 19.59 73.0185 19.59C72.1725 19.59 71.4345 19.392 70.7685 18.996C70.1025 18.6 69.5985 18.042 69.2385 17.358C68.8785 16.674 68.6985 15.9 68.6985 15.072C68.6985 13.92 69.1305 12.804 69.8505 11.94C70.5525 11.076 71.6865 10.5 72.9285 10.5C73.2885 10.5 73.6125 10.554 74.1345 10.698C74.6565 10.86 75.2145 11.22 75.6285 11.724H75.6645V10.644ZM75.7005 15.072C75.7005 14.424 75.5025 13.884 75.0885 13.47C74.6745 13.038 74.1525 12.84 73.5225 12.84C72.9105 12.84 72.4065 13.038 71.9925 13.47C71.5605 13.884 71.3625 14.424 71.3625 15.072C71.3625 15.738 71.5605 16.26 71.9745 16.692C72.3885 17.106 72.9105 17.322 73.5225 17.322C74.1345 17.322 74.6565 17.106 75.0705 16.692C75.5025 16.26 75.7005 15.72 75.7005 15.072Z" fill="currentColor"/>
<path d="M80.6643 19.59V5.928H83.2923V19.59H80.6643Z" fill="currentColor"/>
<path d="M85.1512 15.144C85.1512 14.262 85.3852 13.47 85.8172 12.75C86.2492 12.03 86.8432 11.454 87.5992 11.04C88.3552 10.644 89.1652 10.428 90.0652 10.428C90.9472 10.428 91.7752 10.626 92.5132 11.04C93.2512 11.436 93.8452 11.994 94.2772 12.714C94.7092 13.416 94.9252 14.208 94.9252 15.09C94.9252 15.972 94.7092 16.764 94.2772 17.484C93.8272 18.222 93.2332 18.78 92.4952 19.176C91.7392 19.59 90.9112 19.788 90.0292 19.788C89.1292 19.788 88.3192 19.59 87.5632 19.194C86.8252 18.78 86.2492 18.24 85.8172 17.52C85.3852 16.8 85.1512 16.008 85.1512 15.144ZM88.4632 13.47C88.0492 13.902 87.8332 14.442 87.8332 15.108C87.8332 15.774 88.0492 16.314 88.4632 16.746C88.8952 17.178 89.4172 17.394 90.0472 17.394C90.6592 17.394 91.1812 17.178 91.6132 16.746C92.0452 16.332 92.2432 15.774 92.2432 15.108C92.2432 14.442 92.0452 13.902 91.6132 13.47C91.1812 13.038 90.6592 12.822 90.0292 12.822C89.4172 12.822 88.8952 13.038 88.4632 13.47Z" fill="currentColor"/>
<path d="M98.2054 19.788C97.7014 19.788 97.2874 19.608 96.9274 19.248C96.5674 18.906 96.3874 18.474 96.3874 17.988C96.3874 17.484 96.5674 17.052 96.9274 16.692C97.2874 16.35 97.7014 16.17 98.2054 16.17C98.7094 16.17 99.1414 16.35 99.5014 16.692C99.8434 17.052 100.023 17.484 100.023 17.988C100.023 18.474 99.8434 18.906 99.5014 19.248C99.1414 19.608 98.7094 19.788 98.2054 19.788Z" fill="currentColor"/>
</svg>
